<?xml version="1.0" standalone="no"?>
<!DOCTYPE svg PUBLIC "-//W3C//DTD SVG 20010904//EN"
 "http://www.w3.org/TR/2001/REC-SVG-20010904/DTD/svg10.dtd">
<svg version="1.0" xmlns="http://www.w3.org/2000/svg"
 width="2048.000000pt" height="2048.000000pt" viewBox="0 0 2048.000000 2048.000000"
 preserveAspectRatio="xMidYMid meet">
<metadata>
Created by potrace 1.14, written by Peter Selinger 2001-2017
</metadata>
<g transform="translate(0.000000,2048.000000) scale(0.100000,-0.100000)"
fill="#000000" stroke="none">
<path d="M20260 20460 c0 -12 -64 -117 -143 -235 -55 -83 -214 -303 -227 -315
-3 -3 -32 -39 -64 -80 -33 -41 -67 -82 -75 -91 -9 -9 -36 -40 -60 -68 -113
-134 -375 -402 -520 -531 -113 -101 -123 -110 -170 -149 -25 -20 -61 -50 -80
-67 -200 -172 -601 -447 -898 -616 -407 -231 -928 -455 -1323 -570 -126 -36
-353 -96 -395 -103 -16 -3 -38 -8 -47 -11 -9 -3 -27 -7 -40 -10 -57 -12 -175
-36 -198 -40 -14 -2 -38 -7 -55 -11 -40 -9 -33 -8 -90 -18 -27 -5 -52 -9 -55
-10 -3 -1 -30 -5 -60 -10 -30 -5 -57 -9 -60 -10 -3 0 -27 -4 -53 -9 -27 -4
-59 -9 -70 -12 -18 -3 -100 -16 -257 -39 -14 -2 -45 -6 -70 -10 -58 -8 -83
-12 -150 -20 -30 -4 -64 -9 -74 -11 -11 -2 -40 -6 -65 -9 -60 -7 -118 -14
-161 -20 -19 -3 -55 -7 -80 -10 -25 -3 -61 -7 -80 -10 -19 -2 -60 -7 -90 -10
-58 -6 -78 -9 -205 -24 -44 -5 -105 -13 -135 -16 -30 -3 -71 -8 -90 -10 -52
-7 -118 -14 -180 -20 -51 -5 -102 -11 -175 -20 -16 -2 -57 -7 -90 -10 -33 -3
-76 -8 -96 -11 -20 -2 -54 -6 -75 -8 -21 -3 -67 -7 -101 -11 -34 -3 -70 -7
-80 -9 -10 -2 -49 -7 -88 -10 -106 -11 -147 -16 -185 -21 -45 -6 -101 -13
-170 -20 -30 -3 -109 -12 -175 -20 -66 -8 -140 -17 -165 -20 -68 -8 -132 -16
-160 -20 -14 -2 -47 -7 -75 -10 -27 -4 -61 -8 -75 -10 -14 -2 -50 -7 -80 -10
-30 -3 -100 -13 -155 -21 -55 -7 -120 -16 -145 -19 -25 -3 -56 -7 -70 -10 -14
-2 -45 -7 -70 -10 -25 -4 -56 -8 -70 -10 -14 -2 -45 -7 -70 -10 -25 -3 -70
-10 -100 -15 -30 -5 -75 -12 -100 -15 -48 -7 -219 -33 -260 -40 -14 -3 -45 -7
-70 -11 -25 -3 -61 -9 -80 -14 -19 -5 -69 -13 -110 -19 -75 -11 -158 -26 -345
-61 -55 -11 -116 -22 -135 -25 -19 -3 -55 -11 -80 -16 -25 -6 -58 -13 -75 -15
-16 -3 -52 -9 -80 -15 -27 -6 -61 -13 -75 -15 -54 -11 -313 -67 -460 -100 -85
-20 -164 -37 -175 -40 -11 -2 -85 -20 -165 -40 -80 -19 -153 -37 -163 -39 -10
-2 -104 -27 -210 -56 -106 -28 -205 -55 -222 -59 -311 -78 -1290 -401 -1575
-520 -25 -10 -99 -40 -165 -66 -574 -223 -1359 -603 -1873 -905 -45 -27 -87
-49 -92 -49 -6 0 -10 -4 -10 -9 0 -5 -6 -11 -13 -13 -6 -2 -66 -36 -132 -76
-66 -40 -129 -79 -140 -85 -11 -7 -41 -27 -68 -44 -26 -18 -49 -33 -51 -33
-15 0 -593 -404 -616 -430 -3 -3 -34 -28 -70 -55 -36 -27 -67 -52 -70 -55 -3
-3 -23 -18 -45 -35 -22 -16 -42 -31 -45 -35 -3 -3 -45 -39 -95 -80 -49 -41
-101 -85 -115 -97 -14 -12 -36 -31 -49 -42 -367 -317 -795 -761 -1108 -1151
-387 -482 -733 -1017 -1018 -1575 -74 -145 -255 -528 -255 -540 0 -2 -13 -34
-30 -70 -16 -36 -30 -68 -30 -71 0 -3 -6 -20 -14 -37 -86 -189 -258 -681 -356
-1017 -50 -173 -147 -553 -164 -640 -3 -14 -19 -90 -36 -170 -16 -80 -37 -183
-45 -230 -8 -47 -17 -96 -20 -110 -2 -13 -7 -42 -10 -65 -3 -22 -8 -47 -10
-55 -2 -8 -7 -35 -10 -60 -3 -25 -8 -56 -10 -70 -2 -14 -7 -43 -9 -65 -3 -22
-7 -56 -10 -75 -17 -119 -26 -193 -31 -250 -3 -36 -8 -81 -10 -100 -10 -95
-26 -266 -30 -325 -16 -255 -20 -396 -20 -720 1 -329 5 -493 20 -660 10 -109
17 -183 21 -215 2 -19 8 -73 14 -120 71 -619 301 -1116 699 -1510 146 -145
159 -157 283 -248 87 -64 278 -187 278 -178 0 2 5 28 11 57 5 30 12 65 14 79
2 14 10 59 19 100 8 41 20 102 26 135 15 83 17 89 56 275 20 91 37 173 39 183
2 10 6 26 9 35 3 9 7 29 10 45 3 15 7 35 10 45 3 9 7 28 10 42 12 70 163 654
206 800 11 36 33 112 50 170 115 387 367 1108 450 1285 5 11 21 49 36 85 79
195 334 677 535 1012 219 366 552 852 765 1117 79 98 289 357 293 361 3 3 33
36 66 75 55 64 78 90 144 164 139 155 514 539 647 661 96 90 181 166 263 240
46 41 89 80 95 85 6 6 38 32 71 60 33 27 62 52 65 56 3 3 86 71 185 151 478
383 971 724 1480 1023 223 131 246 144 290 166 22 11 54 28 70 38 87 52 543
284 715 364 160 75 218 101 295 134 44 20 98 43 120 53 64 29 347 146 422 175
37 15 77 31 88 35 84 38 564 218 710 265 556 182 1033 317 1731 490 731 180
1236 330 1751 521 151 56 475 184 578 229 17 7 66 27 110 44 44 18 89 36 100
41 11 5 61 25 110 46 50 20 108 44 130 54 22 10 69 30 105 45 36 15 83 35 105
45 22 10 96 43 165 73 69 30 148 65 175 77 28 13 73 33 100 45 384 173 671
311 1090 521 344 172 611 310 738 380 44 25 81 43 83 42 1 -2 -81 -62 -182
-133 -102 -72 -191 -134 -197 -140 -51 -43 -846 -575 -967 -649 -25 -15 -93
-58 -153 -96 -59 -39 -112 -70 -116 -70 -5 0 -11 -3 -13 -8 -7 -16 -543 -340
-913 -552 -16 -9 -104 -59 -195 -110 -91 -51 -230 -130 -310 -175 -525 -298
-1190 -605 -1865 -860 -55 -21 -127 -48 -160 -61 -33 -12 -112 -40 -175 -62
-140 -48 -383 -137 -505 -185 -49 -19 -225 -87 -390 -151 -165 -63 -381 -147
-480 -186 -99 -39 -214 -84 -255 -100 -295 -110 -862 -346 -1095 -455 -90 -42
-445 -219 -520 -259 -218 -116 -477 -265 -685 -394 -117 -72 -482 -313 -490
-322 -3 -4 -27 -21 -55 -40 -27 -19 -66 -46 -85 -60 -19 -15 -80 -60 -135
-100 -212 -156 -706 -561 -805 -660 -3 -3 -52 -48 -110 -100 -195 -177 -566
-540 -765 -751 -165 -175 -367 -390 -440 -470 -161 -175 -433 -531 -565 -739
-129 -203 -195 -315 -302 -510 -98 -178 -269 -535 -344 -720 -19 -47 -39 -94
-44 -105 -27 -58 -128 -330 -193 -520 -54 -158 -175 -540 -190 -600 -3 -11
-22 -81 -42 -155 -20 -74 -38 -139 -39 -145 -1 -5 -5 -19 -9 -30 -3 -11 -8
-31 -11 -45 -3 -14 -19 -81 -36 -150 -39 -158 -89 -378 -104 -455 -2 -11 -12
-56 -21 -100 -9 -44 -19 -91 -21 -105 -3 -14 -11 -59 -19 -100 -8 -41 -16 -86
-19 -100 -2 -14 -7 -36 -10 -50 -3 -14 -7 -38 -10 -55 -2 -16 -20 -127 -39
-245 -20 -118 -38 -233 -41 -255 -3 -22 -11 -74 -16 -115 -6 -41 -13 -91 -16
-110 -2 -19 -6 -48 -8 -65 -8 -50 -25 -187 -31 -237 -13 -119 -16 -145 -20
-178 -12 -100 -16 -141 -20 -200 -3 -36 -7 -76 -10 -90 -2 -14 -7 -59 -10
-100 -3 -41 -8 -95 -10 -120 -2 -25 -7 -79 -10 -120 -3 -41 -8 -95 -10 -120
-2 -25 -7 -88 -10 -140 -3 -52 -8 -122 -10 -155 -3 -33 -7 -104 -10 -158 -6
-116 -8 -111 141 -292 65 -80 207 -222 280 -280 27 -22 55 -45 62 -52 30 -29
185 -135 277 -190 244 -147 552 -277 834 -354 85 -23 350 -86 396 -94 17 -2
40 -7 51 -9 12 -2 39 -7 60 -11 22 -3 50 -7 64 -10 14 -2 45 -6 70 -9 25 -3
55 -8 68 -11 21 -4 78 -10 182 -20 19 -2 69 -6 110 -10 41 -5 80 -8 85 -8 24
1 161 15 175 18 8 2 42 7 76 10 33 3 71 7 85 10 27 4 165 24 219 31 31 4 241
37 310 49 98 17 378 71 495 96 77 17 149 32 160 35 11 2 29 6 40 9 41 10 201
47 215 50 16 3 135 35 320 85 206 55 682 203 745 230 11 5 72 27 135 48 116
41 418 154 455 172 11 5 71 29 132 54 222 90 463 200 778 357 176 87 338 170
360 182 22 13 76 43 120 67 598 323 1352 830 1930 1299 151 122 361 297 391
326 11 11 47 43 79 70 32 28 77 67 99 87 23 20 51 45 62 55 162 140 657 622
855 834 58 61 253 271 264 283 6 7 33 36 60 67 28 30 77 86 110 124 33 37 69
78 80 91 25 27 84 96 170 199 37 44 77 91 89 105 11 14 57 70 101 125 44 55
82 102 85 105 10 9 224 283 290 370 35 47 68 90 72 95 145 177 616 855 863
1240 158 248 162 253 285 455 62 102 123 202 136 222 13 21 24 40 24 44 0 3 8
18 19 32 17 26 170 289 240 416 18 32 46 81 62 108 16 27 29 52 29 56 0 4 10
23 23 42 13 19 48 82 79 140 31 58 71 134 90 170 20 36 55 101 78 145 64 118
353 696 442 880 85 178 121 254 231 495 41 91 87 191 101 222 95 207 334 772
447 1058 39 96 74 184 79 195 17 37 121 307 217 565 286 766 543 1537 812
2435 40 133 181 629 186 652 2 10 22 86 45 168 37 133 96 354 106 395 2 8 32
130 68 270 35 140 86 343 111 450 26 107 49 202 51 210 7 29 52 226 74 324 12
54 23 106 26 115 12 52 37 165 110 506 2 11 6 31 9 45 16 80 56 279 61 300 6
32 33 166 39 199 3 14 7 37 10 51 10 51 53 279 100 535 3 17 14 84 25 150 11
66 22 131 25 145 2 13 7 42 10 65 3 22 8 47 10 55 2 8 6 33 10 55 3 22 8 51
10 65 5 31 42 270 50 325 10 74 17 120 20 135 2 8 6 38 9 65 10 76 18 138 22
159 2 10 6 44 10 75 3 31 8 65 10 76 8 45 15 145 10 145 -3 0 -6 -4 -6 -10z"/>
</g>
</svg>
